<svg xmlns="http://www.w3.org/2000/svg" viewBox="0 0 1400 900" width="1400" height="900" role="img" preserveAspectRatio="xMidYMid slice"><defs><pattern id="h3" width="24" height="24" patternUnits="userSpaceOnUse" patternTransform="rotate(45)"><rect width="2" height="24" fill="#B5B1B0"/></pattern></defs><rect width="1400" height="900" fill="#0c0c0c"/><rect width="1400" height="900" fill="url(#h3)" opacity="0.05"/><g transform="translate(230,300) scale(0.95)" fill="none" stroke="#B5B1B0" stroke-opacity="0.34" stroke-width="2.74" stroke-linejoin="round"><path d="M62,286 L62,250 C62,236 70,226 88,218 L176,186 C218,136 262,110 344,106 L604,106 C690,110 736,136 782,186 L876,216 C902,224 912,236 912,252 L912,286 Z"/><circle cx="250" cy="286" r="62"/><circle cx="744" cy="286" r="62"/></g><rect x="0.5" y="0.5" width="1399" height="899" fill="none" stroke="#B5B1B0" stroke-opacity="0.13"/><g><rect x="24" y="846" width="257" height="28" fill="#000000"/><rect x="24" y="846" width="4" height="28" fill="#B5B1B0"/><text x="38" y="866" font-family="ui-monospace,Menlo,Consolas,monospace" font-size="12" letter-spacing="0.6" fill="#B5B1B0">PLACEHOLDER  assets/img/after.svg</text></g></svg>